<?xml version="1.0" standalone="no"?>
<!DOCTYPE svg PUBLIC "-//W3C//DTD SVG 20010904//EN"
 "http://www.w3.org/TR/2001/REC-SVG-20010904/DTD/svg10.dtd">
<svg version="1.0" xmlns="http://www.w3.org/2000/svg"
 width="500.000000pt" height="500.000000pt" viewBox="0 0 500.000000 500.000000"
 preserveAspectRatio="xMidYMid meet">
<metadata>
Created by potrace 1.16, written by Peter Selinger 2001-2019
</metadata>
<g transform="translate(0.000000,500.000000) scale(0.100000,-0.100000)"
fill="#000000" stroke="none">
<path d="M2201 4061 c-11 -7 -13 -54 -9 -262 3 -140 9 -262 13 -272 12 -29 45
-42 62 -24 19 19 19 101 -2 342 -19 217 -26 240 -64 216z"/>
<path d="M3179 3833 c-114 -120 -215 -283 -207 -337 2 -14 11 -22 28 -23 22
-2 34 11 90 99 36 56 103 142 149 190 78 82 84 91 75 116 -6 18 -18 28 -35 30
-20 2 -40 -12 -100 -75z"/>
<path d="M1242 3428 c-21 -21 -14 -34 46 -89 114 -106 322 -249 385 -264 33
-9 57 8 57 41 0 19 -21 35 -117 93 -123 72 -221 140 -286 197 -39 36 -65 42
-85 22z"/>
<path d="M2438 3345 c-183 -30 -348 -101 -455 -198 -72 -65 -89 -84 -136 -161
-54 -87 -78 -173 -78 -278 0 -180 52 -273 226 -406 158 -121 235 -215 250
-304 8 -46 -3 -101 -18 -95 -36 13 -64 -46 -34 -71 39 -33 409 -58 458 -32 15
9 19 22 19 63 0 73 25 182 56 244 39 80 113 154 242 241 144 98 209 156 268
238 139 195 120 418 -51 589 -71 71 -172 127 -282 156 -103 27 -340 35 -465
14z m427 -106 c110 -27 179 -63 250 -134 88 -86 110 -137 109 -250 0 -78 -4
-98 -29 -149 -42 -86 -119 -163 -258 -257 -67 -46 -146 -106 -175 -133 -104
-98 -166 -223 -180 -364 l-7 -67 -80 -3 c-44 -1 -111 1 -150 5 -68 8 -70 9
-65 33 10 49 3 136 -14 187 -27 80 -87 154 -206 253 -61 50 -121 107 -135 128
-110 166 -71 396 95 562 122 122 300 191 540 209 121 9 213 3 305 -20z"/>
<path d="M2506 2709 c-34 -27 -48 -85 -46 -184 3 -107 3 -107 -26 -55 -32 57
-49 70 -93 70 -89 -1 -135 -117 -75 -189 25 -30 95 -58 114 -46 15 10 12 -133
-5 -222 -20 -103 -20 -107 7 -100 12 4 27 2 34 -4 16 -13 42 -1 49 24 3 12 29
95 57 184 l51 161 35 7 c47 9 92 55 92 94 0 52 -61 78 -107 46 l-21 -15 15 48
c16 52 12 116 -11 161 -20 38 -40 44 -70 20z"/>
<path d="M3835 2994 c-120 -25 -296 -101 -374 -162 -17 -14 -22 -25 -16 -40 8
-28 34 -28 93 2 88 45 172 75 285 102 135 32 147 38 147 69 0 41 -38 50 -135
29z"/>
<path d="M1435 2693 c-154 -34 -348 -94 -378 -118 -26 -19 -18 -49 15 -53 15
-2 63 8 106 22 79 25 173 45 309 66 88 14 108 27 99 63 -6 26 -9 27 -69 26
-34 -1 -71 -3 -82 -6z"/>
<path d="M1549 2123 c-70 -73 -147 -166 -200 -244 -35 -52 -40 -65 -31 -84 6
-12 20 -25 32 -28 27 -7 49 14 112 114 26 41 79 114 118 163 73 91 86 128 45
134 -13 2 -39 -16 -76 -55z"/>
<path d="M3253 2133 c-31 -12 -11 -45 60 -96 110 -81 320 -223 340 -230 25 -9
57 10 57 33 0 11 -12 30 -26 43 -48 42 -396 258 -412 256 -4 0 -13 -3 -19 -6z"/>
<path d="M2280 1720 c-57 -8 -110 -25 -110 -35 0 -4 5 -15 10 -26 9 -17 22
-19 105 -19 52 0 140 -5 195 -11 111 -12 147 -8 152 19 6 23 -11 59 -31 68
-24 10 -258 14 -321 4z"/>
<path d="M2310 1580 c-110 -6 -130 -12 -130 -36 0 -17 28 -29 91 -38 l46 -7
-5 -49 c-4 -45 -2 -52 27 -79 86 -81 221 -16 223 108 1 92 -48 112 -252 101z"/>
</g>
</svg>
